<?xml version="1.0" standalone="no"?>
<!DOCTYPE svg PUBLIC "-//W3C//DTD SVG 20010904//EN"
 "http://www.w3.org/TR/2001/REC-SVG-20010904/DTD/svg10.dtd">
<svg version="1.0" xmlns="http://www.w3.org/2000/svg"
 width="945.000000pt" height="945.000000pt" viewBox="0 0 945.000000 945.000000"
 preserveAspectRatio="xMidYMid meet">
<metadata>
Created by potrace 1.15, written by Peter Selinger 2001-2017
</metadata>
<g transform="translate(0.000000,945.000000) scale(0.100000,-0.100000)"
fill="#000000" stroke="none">
<path d="M0 4725 l0 -4725 4725 0 4725 0 0 4725 0 4725 -4725 0 -4725 0 0
-4725z m6780 1338 c0 -1535 -4 -2479 -11 -2603 -45 -846 -350 -1451 -912
-1809 -318 -203 -699 -314 -1162 -341 -887 -50 -1642 262 -2064 853 -35 49
-64 95 -65 103 0 9 224 179 538 408 l540 393 105 -107 c143 -143 276 -229 457
-293 130 -47 217 -60 379 -59 136 0 159 3 245 29 277 84 447 294 528 653 l26
115 3 2533 4 2532 694 0 695 0 0 -2407z"/>
</g>
</svg>
